<svg xmlns="http://www.w3.org/2000/svg" width="33" height="32" viewBox="0 0 33 32" fill="none">
  <path d="M5.87005 3.3533C4.69861 3.56217 3.89261 4.47874 3.76276 5.66608C3.59508 7.1993 3.41666 9.82274 3.41666 14.0449C3.41666 18.267 3.59508 20.8905 3.76276 22.4237C3.89261 23.611 4.69861 24.5276 5.87005 24.7365C6.91113 24.9221 8.47543 25.1252 10.75 25.262V27.9923C10.75 29.1147 12.0432 29.7387 12.9162 29.0376L17.4187 25.4213C22.7915 25.3942 25.9181 25.0417 27.6299 24.7365C28.8014 24.5276 29.6074 23.611 29.7372 22.4237C29.9049 20.8905 30.0833 18.267 30.0833 14.0449C30.0833 9.82274 29.9049 7.1993 29.7372 5.66608C29.6074 4.47874 28.8014 3.56217 27.6299 3.3533C25.8482 3.03561 22.5341 2.66675 16.75 2.66675C10.9659 2.66675 7.65174 3.03561 5.87005 3.3533Z" fill="#CC9619"/>
  <path d="M14.1681 13.6628C13.9715 13.849 13.8769 14.1011 13.8844 14.4191H13.8836V15.8968C13.8836 16.4774 14.3405 16.9481 14.9041 16.9481H15.8583C16.4219 16.9481 16.8788 16.4774 16.8788 15.8968V15.5716L17.0217 15.5029C17.6618 15.1912 18.2294 14.8677 18.7246 14.5322C19.2198 14.1967 19.6212 13.8318 19.929 13.4373C20.2496 13.0414 20.4751 12.6029 20.6054 12.1216C20.7472 11.6258 20.7847 11.0616 20.7179 10.4291C20.5816 9.13781 20.0767 8.15446 19.203 7.47906C18.3421 6.80223 17.1571 6.54836 15.6479 6.71745C15.1235 6.7762 14.6366 6.88407 14.1873 7.04107C13.7366 7.1849 13.349 7.37498 13.0246 7.61132C12.7001 7.84766 12.4509 8.12223 12.2768 8.43505C12.1156 8.74643 12.0551 9.09318 12.0955 9.4753C12.1265 9.76943 12.2228 10.0294 12.3737 10.2488C12.691 10.7103 13.3248 10.559 13.7823 10.2466C13.897 10.1683 14.0141 10.0951 14.1337 10.0269C14.5107 9.79799 14.9614 9.65417 15.4858 9.59542C16.0613 9.53093 16.4859 9.63002 16.7595 9.89268C17.0459 10.1539 17.2072 10.4558 17.2434 10.7984C17.2837 11.1805 17.2027 11.5163 17.0003 11.8056C16.7965 12.0817 16.5104 12.3138 16.142 12.5017L15.0368 13.0655C14.6812 13.252 14.3916 13.4511 14.1681 13.6628Z" fill="#FFDB87"/>
  <path d="M13.4942 20.1312C13.4942 19.5745 13.655 19.1239 13.9766 18.7793C14.3111 18.4347 14.7679 18.2624 15.3468 18.2624C15.9258 18.2624 16.376 18.4347 16.6977 18.7793C17.0322 19.1239 17.1994 19.5745 17.1994 20.1312C17.1994 20.6879 17.0322 21.1386 16.6977 21.4832C16.376 21.8278 15.9258 22.0001 15.3468 22.0001C14.7679 22.0001 14.3111 21.8278 13.9766 21.4832C13.655 21.1386 13.4942 20.6879 13.4942 20.1312Z" fill="#FFDB87"/>
</svg>