<svg xmlns="http://www.w3.org/2000/svg" width="33" height="32" viewBox="0 0 33 32" fill="none">
  <path d="M5.37006 3.3533C4.19862 3.56217 3.39262 4.47874 3.26277 5.66608C3.09509 7.1993 2.91667 9.82274 2.91667 14.0449C2.91667 18.267 3.09509 20.8905 3.26277 22.4237C3.39262 23.611 4.19863 24.5276 5.37007 24.7365C6.41114 24.9221 7.97544 25.1252 10.25 25.262V27.9923C10.25 29.1147 11.5432 29.7387 12.4163 29.0376L16.9188 25.4213C22.2915 25.3942 25.4181 25.0417 27.1299 24.7365C28.3014 24.5276 29.1074 23.611 29.2372 22.4237C29.4049 20.8905 29.5833 18.267 29.5833 14.0449C29.5833 9.82274 29.4049 7.1993 29.2372 5.66608C29.1074 4.47874 28.3014 3.56217 27.1299 3.3533C25.3482 3.03561 22.0341 2.66675 16.25 2.66675C10.4659 2.66675 7.15176 3.03561 5.37006 3.3533Z" fill="#2EA254"/>
  <path d="M13.6681 13.6628C13.4715 13.849 13.3769 14.1011 13.3844 14.4191H13.3836V15.8968C13.3836 16.4774 13.8405 16.9481 14.4041 16.9481H15.3583C15.9219 16.9481 16.3788 16.4774 16.3788 15.8968V15.5716L16.5217 15.5029C17.1618 15.1912 17.7294 14.8677 18.2246 14.5322C18.7197 14.1967 19.1212 13.8318 19.429 13.4373C19.7496 13.0414 19.975 12.6029 20.1054 12.1216C20.2472 11.6258 20.2847 11.0616 20.2179 10.4291C20.0816 9.13781 19.5766 8.15446 18.703 7.47906C17.8421 6.80223 16.6571 6.54836 15.1479 6.71745C14.6235 6.7762 14.1366 6.88407 13.6873 7.04107C13.2366 7.1849 12.849 7.37498 12.5246 7.61132C12.2001 7.84766 11.9508 8.12223 11.7768 8.43505C11.6156 8.74643 11.5551 9.09318 11.5954 9.4753C11.6265 9.76943 11.7228 10.0294 11.8737 10.2488C12.191 10.7103 12.8247 10.559 13.2823 10.2466C13.397 10.1683 13.5141 10.0951 13.6337 10.0269C14.0107 9.79799 14.4614 9.65417 14.9858 9.59542C15.5613 9.53093 15.9859 9.63002 16.2595 9.89268C16.5459 10.1539 16.7072 10.4558 16.7434 10.7984C16.7837 11.1805 16.7027 11.5163 16.5003 11.8056C16.2965 12.0817 16.0104 12.3138 15.642 12.5017L14.5368 13.0655C14.1812 13.252 13.8916 13.4511 13.6681 13.6628Z" fill="#99FFBB"/>
  <path d="M12.9942 20.1312C12.9942 19.5745 13.155 19.1239 13.4766 18.7793C13.8111 18.4347 14.2679 18.2624 14.8468 18.2624C15.4257 18.2624 15.876 18.4347 16.1977 18.7793C16.5322 19.1239 16.6994 19.5745 16.6994 20.1312C16.6994 20.6879 16.5322 21.1386 16.1977 21.4832C15.876 21.8278 15.4257 22.0001 14.8468 22.0001C14.2679 22.0001 13.8111 21.8278 13.4766 21.4832C13.155 21.1386 12.9942 20.6879 12.9942 20.1312Z" fill="#99FFBB"/>
</svg>