<svg width="32" height="32" viewBox="0 0 32 32" fill="none" xmlns="http://www.w3.org/2000/svg">
<path d="M19.9759 2.95528C21.2594 3.09194 22.1538 4.05031 22.2807 5.3348C22.4628 7.17837 22.6664 10.4746 22.6664 16C22.6664 22.8703 22.3517 26.5939 22.1547 28.2516C22.0797 28.8828 21.5423 29.3333 20.9067 29.3333C19.6921 29.3333 17.2631 29.3333 12.6664 29.3333C8.06965 29.3333 5.64063 29.3333 4.426 29.3333C3.79043 29.3333 3.25298 28.8828 3.178 28.2516C2.98103 26.5939 2.66635 22.8703 2.66635 16C2.66635 10.4746 2.86988 7.17837 3.05203 5.3348C3.17894 4.05031 4.07335 3.09194 5.35684 2.95528C6.7522 2.80671 9.0316 2.66663 12.6664 2.66663C16.3011 2.66663 18.5805 2.80671 19.9759 2.95528Z" fill="#2EA254"/>
<path fill-rule="evenodd" clip-rule="evenodd" d="M6.66602 7.75882C6.66602 7.22888 7.07823 6.79215 7.60772 6.77008C8.65423 6.72646 10.487 6.66663 12.666 6.66663C14.845 6.66663 16.6778 6.72646 17.7243 6.77008C18.2538 6.79215 18.666 7.22888 18.666 7.75882V8.2411C18.666 8.77104 18.2538 9.20777 17.7243 9.22984C16.6778 9.27345 14.845 9.33329 12.666 9.33329C10.487 9.33329 8.65423 9.27345 7.60772 9.22984C7.07823 9.20777 6.66602 8.77104 6.66602 8.2411V7.75882ZM6.66602 18.3234C6.66602 17.8369 7.01677 17.4233 7.50164 17.3826C7.82504 17.3554 8.22418 17.3333 8.66602 17.3333C9.10785 17.3333 9.50699 17.3554 9.8304 17.3826C10.3153 17.4233 10.666 17.8369 10.666 18.3234V19.0098C10.666 19.4964 10.3153 19.9099 9.8304 19.9507C9.50699 19.9778 9.10785 20 8.66602 20C8.22418 20 7.82504 19.9778 7.50164 19.9507C7.01677 19.9099 6.66602 19.4964 6.66602 19.0098V18.3234ZM7.56415 12.0775C7.05284 12.11 6.66602 12.5374 6.66602 13.0498V13.6168C6.66602 14.1292 7.05284 14.5565 7.56415 14.5891C8.16248 14.6273 9.01767 14.6666 9.99935 14.6666C10.981 14.6666 11.8362 14.6273 12.4345 14.5891C12.9459 14.5565 13.3327 14.1292 13.3327 13.6168V13.0498C13.3327 12.5374 12.9459 12.11 12.4345 12.0775C11.8362 12.0393 10.981 12 9.99935 12C9.01767 12 8.16248 12.0393 7.56415 12.0775Z" fill="#66FF99"/>
<path d="M20.6667 29.3333H27.809C28.4446 29.3333 28.9837 28.8842 29.0609 28.2534C29.1842 27.246 29.3333 25.5546 29.3333 23.2667C29.3333 20.8664 29.1692 19.2868 29.043 18.4269C28.9655 17.8995 28.7419 17.4096 28.3798 17.0183C26.8357 15.3498 23.6254 12.8748 21.3126 12.157C20.891 12.0262 20.4423 12.0262 20.0208 12.157C17.7079 12.8748 14.4976 15.3498 12.9536 17.0183C12.5915 17.4096 12.3678 17.8995 12.2904 18.4269C12.1641 19.2868 12 20.8664 12 23.2667C12 25.5546 12.1491 27.246 12.2724 28.2534C12.3496 28.8842 12.8888 29.3333 13.5243 29.3333H20.6667Z" fill="#66FF99"/>
<path fill-rule="evenodd" clip-rule="evenodd" d="M23.9848 29.3333H20.667H17.3498C17.34 28.8334 17.334 28.2452 17.334 27.5555C17.334 25.436 17.3912 24.2756 17.4369 23.6866C17.4635 23.3443 17.6567 23.0507 17.986 22.9538C18.444 22.8192 19.2709 22.6666 20.6673 22.6666C22.0638 22.6666 22.8907 22.8192 23.3486 22.9538C23.678 23.0507 23.8712 23.3443 23.8977 23.6866C23.9435 24.2756 24.0007 25.436 24.0007 27.5555C24.0007 28.2452 23.9946 28.8334 23.9848 29.3333Z" fill="#2EA254"/>
</svg>
