<svg width="32" height="32" viewBox="0 0 32 32" fill="none" xmlns="http://www.w3.org/2000/svg">
<path d="M19.9758 2.95541C21.2593 3.09207 22.1537 4.05043 22.2806 5.33493C22.4627 7.17849 22.6663 10.4747 22.6663 16.0001C22.6663 22.8704 22.3516 26.594 22.1546 28.2518C22.0796 28.8829 21.5422 29.3334 20.9066 29.3334C19.692 29.3334 17.263 29.3334 12.6663 29.3334C8.06956 29.3334 5.64054 29.3334 4.42591 29.3334C3.79034 29.3334 3.25289 28.8829 3.1779 28.2518C2.98094 26.594 2.66626 22.8704 2.66626 16.0001C2.66626 10.4747 2.86979 7.17849 3.05194 5.33493C3.17885 4.05043 4.07326 3.09207 5.35675 2.95541C6.75211 2.80684 9.03151 2.66675 12.6663 2.66675C16.301 2.66675 18.5804 2.80684 19.9758 2.95541Z" fill="#194C81"/>
<path fill-rule="evenodd" clip-rule="evenodd" d="M6.66602 7.75894C6.66602 7.229 7.07823 6.79227 7.60772 6.7702C8.65423 6.72659 10.487 6.66675 12.666 6.66675C14.845 6.66675 16.6778 6.72659 17.7243 6.7702C18.2538 6.79227 18.666 7.229 18.666 7.75894V8.24122C18.666 8.77116 18.2538 9.20789 17.7243 9.22996C16.6778 9.27358 14.845 9.33341 12.666 9.33341C10.487 9.33341 8.65423 9.27358 7.60772 9.22996C7.07823 9.20789 6.66602 8.77116 6.66602 8.24122V7.75894ZM6.66602 18.3236C6.66602 17.837 7.01677 17.4234 7.50164 17.3827C7.82504 17.3556 8.22418 17.3334 8.66602 17.3334C9.10785 17.3334 9.50699 17.3556 9.8304 17.3827C10.3153 17.4234 10.666 17.837 10.666 18.3236V19.0099C10.666 19.4965 10.3153 19.91 9.8304 19.9508C9.50699 19.9779 9.10785 20.0001 8.66602 20.0001C8.22418 20.0001 7.82504 19.9779 7.50164 19.9508C7.01677 19.91 6.66602 19.4965 6.66602 19.0099V18.3236ZM7.56415 12.0776C7.05284 12.1102 6.66602 12.5375 6.66602 13.0499V13.6169C6.66602 14.1293 7.05284 14.5567 7.56415 14.5893C8.16248 14.6274 9.01767 14.6667 9.99935 14.6667C10.981 14.6667 11.8362 14.6274 12.4345 14.5893C12.9459 14.5567 13.3327 14.1293 13.3327 13.6169V13.0499C13.3327 12.5375 12.9459 12.1102 12.4345 12.0776C11.8362 12.0394 10.981 12.0001 9.99935 12.0001C9.01767 12.0001 8.16248 12.0394 7.56415 12.0776Z" fill="#9ED1F6"/>
<path d="M20.6667 29.3333H27.809C28.4446 29.3333 28.9837 28.8842 29.0609 28.2534C29.1842 27.246 29.3333 25.5546 29.3333 23.2667C29.3333 20.8664 29.1692 19.2868 29.043 18.4269C28.9655 17.8995 28.7419 17.4096 28.3798 17.0183C26.8357 15.3498 23.6254 12.8748 21.3126 12.157C20.891 12.0262 20.4423 12.0262 20.0208 12.157C17.7079 12.8748 14.4976 15.3498 12.9536 17.0183C12.5915 17.4096 12.3678 17.8995 12.2904 18.4269C12.1641 19.2868 12 20.8664 12 23.2667C12 25.5546 12.1491 27.246 12.2724 28.2534C12.3496 28.8842 12.8888 29.3333 13.5243 29.3333H20.6667Z" fill="#9ED1F6"/>
<path fill-rule="evenodd" clip-rule="evenodd" d="M23.9848 29.3334H20.667H17.3498C17.34 28.8335 17.334 28.2453 17.334 27.5556C17.334 25.4361 17.3912 24.2757 17.4369 23.6867C17.4635 23.3445 17.6567 23.0508 17.986 22.954C18.444 22.8193 19.2709 22.6667 20.6673 22.6667C22.0638 22.6667 22.8907 22.8193 23.3486 22.954C23.678 23.0508 23.8712 23.3445 23.8977 23.6867C23.9435 24.2757 24.0007 25.4361 24.0007 27.5556C24.0007 28.2453 23.9946 28.8335 23.9848 29.3334Z" fill="#194C81"/>
</svg>
