<svg width="32" height="32" viewBox="0 0 32 32" fill="none" xmlns="http://www.w3.org/2000/svg">
<g id="money-cash-search-dollar">
<path id="Union" fill-rule="evenodd" clip-rule="evenodd" d="M24.8446 21.026C25.999 19.1823 26.6663 17.0024 26.6663 14.6667C26.6663 8.03933 21.2937 2.66675 14.6663 2.66675C8.03884 2.66675 2.66626 8.03933 2.66626 14.6667C2.66626 21.2942 8.03884 26.6667 14.6663 26.6667C16.9965 26.6667 19.1716 26.0025 21.0126 24.8531C21.1174 24.9791 21.2218 25.1049 21.326 25.2304C22.3984 26.5219 23.4518 27.7906 24.6647 29.0399C25.4003 29.7976 26.4983 29.9071 27.284 29.2012C27.5623 28.9512 27.8879 28.6439 28.2654 28.2671C28.6429 27.8902 28.9507 27.5652 29.2012 27.2873C29.9083 26.503 29.7986 25.4069 29.0395 24.6725C27.7881 23.4618 26.5172 22.4102 25.2235 21.3397C25.0974 21.2354 24.9711 21.1309 24.8446 21.026Z" fill="#762AF1"/>
<circle id="Ellipse 17" cx="14.6667" cy="14.6667" r="8" fill="#CFB2FE"/>
<path id="$" d="M14.278 17.6856C14.9 17.6856 15.3493 17.5852 15.6257 17.3844C15.9137 17.1837 16.0577 16.9378 16.0577 16.6467C16.0577 16.3857 15.9482 16.1749 15.7294 16.0143C15.5105 15.8537 15.1822 15.7132 14.7445 15.5927L13.7942 15.3217C13.3219 15.1912 12.8957 15.0507 12.5156 14.9001C12.1354 14.7496 11.8129 14.5689 11.548 14.3581C11.283 14.1473 11.0757 13.8964 10.9259 13.6053C10.7762 13.3142 10.7013 12.9679 10.7013 12.5664C10.7013 11.8838 10.9432 11.3167 11.427 10.865C11.9108 10.4133 12.602 10.1122 13.5004 9.9616V9.30921C13.5004 8.99571 13.7187 8.7197 14.0307 8.68884C14.1773 8.67434 14.3243 8.66675 14.468 8.66675C14.8942 8.66675 15.1995 8.73199 15.3838 8.86248C15.5796 8.99297 15.6775 9.22886 15.6775 9.57014V9.90138C16.4148 9.97164 17.0138 10.1272 17.4745 10.3681C17.9353 10.599 18.1657 10.9051 18.1657 11.2866C18.1657 11.562 18.042 11.8044 17.8485 12.0051C17.6722 12.188 17.39 12.1775 17.1551 12.0808C16.9539 11.998 16.7206 11.924 16.4551 11.8587C16.0174 11.7383 15.5393 11.678 15.021 11.678C14.445 11.678 14.013 11.7634 13.7251 11.934C13.4486 12.0946 13.3104 12.3054 13.3104 12.5664C13.3104 12.7772 13.4025 12.9478 13.5868 13.0783C13.7827 13.2088 14.0764 13.3292 14.468 13.4396L15.4356 13.6956C16.4724 13.9767 17.2672 14.3481 17.8201 14.8098C18.3845 15.2715 18.6667 15.8938 18.6667 16.6768C18.6667 17.3694 18.4133 17.9566 17.9065 18.4384C17.3996 18.9102 16.6567 19.2263 15.6775 19.3869L15.6775 20.0243C15.6775 20.3378 15.4593 20.6138 15.1473 20.6447C15.0008 20.6592 14.8538 20.6667 14.7099 20.6667C14.2837 20.6667 13.9727 20.6015 13.7769 20.471C13.5926 20.3405 13.5004 20.1046 13.5004 19.7634V19.4622C12.6595 19.3819 11.9742 19.2063 11.4443 18.9353C10.9259 18.6542 10.6667 18.3029 10.6667 17.8813C10.6667 17.5324 10.8655 17.2485 11.1517 17.0344C11.3499 16.8862 11.619 16.9228 11.8333 17.0466C12.0693 17.183 12.3428 17.3107 12.6538 17.4296C13.1261 17.6002 13.6675 17.6856 14.278 17.6856Z" fill="#762AF1"/>
</g>
</svg>
