<svg xmlns="http://www.w3.org/2000/svg" width="33" height="32" viewBox="0 0 33 32" fill="none">
  <path d="M5.62006 3.3533C4.44862 3.56217 3.64262 4.47874 3.51277 5.66608C3.34509 7.1993 3.16667 9.82274 3.16667 14.0449C3.16667 18.267 3.34509 20.8905 3.51277 22.4237C3.64262 23.611 4.44863 24.5276 5.62007 24.7365C6.66114 24.9221 8.22544 25.1252 10.5 25.262V27.9923C10.5 29.1147 11.7932 29.7387 12.6663 29.0376L17.1688 25.4213C22.5415 25.3942 25.6681 25.0417 27.3799 24.7365C28.5514 24.5276 29.3574 23.611 29.4872 22.4237C29.6549 20.8905 29.8333 18.267 29.8333 14.0449C29.8333 9.82274 29.6549 7.1993 29.4872 5.66608C29.3574 4.47874 28.5514 3.56217 27.3799 3.3533C25.5982 3.03561 22.2841 2.66675 16.5 2.66675C10.7159 2.66675 7.40176 3.03561 5.62006 3.3533Z" fill="#194C81"/>
  <path d="M13.9181 13.6628C13.7215 13.849 13.6269 14.1011 13.6344 14.4191H13.6336V15.8968C13.6336 16.4774 14.0905 16.9481 14.6541 16.9481H15.6083C16.1719 16.9481 16.6288 16.4774 16.6288 15.8968V15.5716L16.7717 15.5029C17.4118 15.1912 17.9794 14.8677 18.4746 14.5322C18.9697 14.1967 19.3712 13.8318 19.679 13.4373C19.9996 13.0414 20.225 12.6029 20.3554 12.1216C20.4972 11.6258 20.5347 11.0616 20.4679 10.4291C20.3316 9.13781 19.8266 8.15446 18.953 7.47906C18.0921 6.80223 16.9071 6.54836 15.3979 6.71745C14.8735 6.7762 14.3866 6.88407 13.9373 7.04107C13.4866 7.1849 13.099 7.37498 12.7746 7.61132C12.4501 7.84766 12.2008 8.12223 12.0268 8.43505C11.8656 8.74643 11.8051 9.09318 11.8454 9.4753C11.8765 9.76943 11.9728 10.0294 12.1237 10.2488C12.441 10.7103 13.0747 10.559 13.5323 10.2466C13.647 10.1683 13.7641 10.0951 13.8837 10.0269C14.2607 9.79799 14.7114 9.65417 15.2358 9.59542C15.8113 9.53093 16.2359 9.63002 16.5095 9.89268C16.7959 10.1539 16.9572 10.4558 16.9934 10.7984C17.0337 11.1805 16.9527 11.5163 16.7503 11.8056C16.5465 12.0817 16.2604 12.3138 15.892 12.5017L14.7868 13.0655C14.4312 13.252 14.1416 13.4511 13.9181 13.6628Z" fill="#B6DDF8"/>
  <path d="M13.2442 20.1312C13.2442 19.5745 13.405 19.1239 13.7266 18.7793C14.0611 18.4347 14.5179 18.2624 15.0968 18.2624C15.6757 18.2624 16.126 18.4347 16.4477 18.7793C16.7822 19.1239 16.9494 19.5745 16.9494 20.1312C16.9494 20.6879 16.7822 21.1386 16.4477 21.4832C16.126 21.8278 15.6757 22.0001 15.0968 22.0001C14.5179 22.0001 14.0611 21.8278 13.7266 21.4832C13.405 21.1386 13.2442 20.6879 13.2442 20.1312Z" fill="#B6DDF8"/>
</svg>