<svg xmlns="http://www.w3.org/2000/svg" width="32" height="32" viewBox="0 0 32 32" fill="none">
  <path d="M2.28539 14.0761C1.75216 14.6789 1.99411 15.4992 2.77841 15.6684C3.39255 15.8009 4.23673 15.9488 5.37396 16.0867C5.34692 16.9969 5.33043 18.0529 5.33043 19.275C5.33043 22.533 5.44765 24.6114 5.56948 25.8916C5.68126 27.0661 6.47804 27.9608 7.63536 28.1522C9.13984 28.401 11.7432 28.6667 15.9997 28.6667C20.2563 28.6667 22.8596 28.401 24.3641 28.1522C25.5214 27.9608 26.3182 27.0661 26.4299 25.8916C26.5518 24.6114 26.669 22.533 26.669 19.275C26.669 18.053 26.6525 16.997 26.6255 16.0868C27.7629 15.9489 28.6072 15.801 29.2215 15.6685C30.0059 15.4993 30.2479 14.6787 29.7145 14.0758C28.7786 13.0179 27.0383 11.2144 24.0022 8.54162C20.4861 5.44638 18.1286 4.09987 16.93 3.54156C16.3339 3.26394 15.6665 3.26398 15.0705 3.54165C13.872 4.10002 11.5147 5.44655 7.99824 8.54162C4.96128 11.2146 3.22109 13.0182 2.28539 14.0761Z" fill="#CC9619"/>
  <path d="M18.6765 19.2241C20.0731 18.3373 21 16.7769 21 15C21 12.2386 18.7614 10 16 10C13.2386 10 11 12.2386 11 15C11 16.7769 11.9269 18.3373 13.3236 19.2241C11.3909 20.0676 9.91112 21.7968 9.36419 23.9174C9.2462 24.3749 9.47495 24.8616 9.90682 24.9347C11.1084 25.1379 13.0346 25.3333 15.9998 25.3333C18.9651 25.3333 20.8913 25.1379 22.0928 24.9347C22.525 24.8615 22.7539 24.3744 22.6358 23.9166C22.0887 21.7963 20.6089 20.0674 18.6765 19.2241Z" fill="#FFDB87"/>
</svg>