<svg xmlns="http://www.w3.org/2000/svg" width="32" height="32" viewBox="0 0 32 32" fill="none">
  <path d="M5.12008 3.3533C3.94864 3.56217 3.14264 4.47874 3.01279 5.66608C2.84511 7.1993 2.66669 9.82274 2.66669 14.0449C2.66669 18.267 2.84511 20.8905 3.01279 22.4237C3.14264 23.611 3.94864 24.5276 5.12008 24.7365C6.16116 24.9221 7.72546 25.1252 10 25.262V27.9923C10 29.1147 11.2933 29.7387 12.1663 29.0376L16.6688 25.4213C22.0416 25.3942 25.1681 25.0417 26.88 24.7365C28.0514 24.5276 28.8574 23.611 28.9873 22.4237C29.1549 20.8905 29.3334 18.267 29.3334 14.0449C29.3334 9.82274 29.1549 7.1993 28.9873 5.66608C28.8574 4.47874 28.0514 3.56217 26.88 3.3533C25.0983 3.03561 21.7841 2.66675 16 2.66675C10.2159 2.66675 6.90177 3.03561 5.12008 3.3533Z" fill="#E67B21"/>
  <path d="M13.418 13.6628C13.2215 13.849 13.1269 14.1011 13.1344 14.4191H13.1336V15.8968C13.1336 16.4774 13.5905 16.9481 14.1541 16.9481H15.1082C15.6719 16.9481 16.1287 16.4774 16.1287 15.8968V15.5716L16.2717 15.5029C16.9118 15.1912 17.4794 14.8677 17.9746 14.5322C18.4697 14.1967 18.8712 13.8318 19.179 13.4373C19.4996 13.0414 19.725 12.6029 19.8554 12.1216C19.9972 11.6258 20.0347 11.0616 19.9679 10.4291C19.8316 9.13781 19.3266 8.15446 18.453 7.47906C17.5921 6.80223 16.4071 6.54836 14.8979 6.71745C14.3735 6.7762 13.8866 6.88407 13.4373 7.04107C12.9866 7.1849 12.599 7.37498 12.2745 7.61132C11.9501 7.84766 11.7008 8.12223 11.5268 8.43505C11.3655 8.74643 11.3051 9.09318 11.3454 9.4753C11.3765 9.76943 11.4728 10.0294 11.6237 10.2488C11.941 10.7103 12.5747 10.559 13.0323 10.2466C13.1469 10.1683 13.2641 10.0951 13.3837 10.0269C13.7607 9.79799 14.2114 9.65417 14.7358 9.59542C15.3113 9.53093 15.7359 9.63002 16.0095 9.89268C16.2959 10.1539 16.4572 10.4558 16.4934 10.7984C16.5337 11.1805 16.4527 11.5163 16.2503 11.8056C16.0465 12.0817 15.7604 12.3138 15.392 12.5017L14.2868 13.0655C13.9312 13.252 13.6416 13.4511 13.418 13.6628Z" fill="#FECBA1"/>
  <path d="M12.7442 20.1312C12.7442 19.5745 12.905 19.1239 13.2266 18.7793C13.5611 18.4347 14.0178 18.2624 14.5968 18.2624C15.1757 18.2624 15.626 18.4347 15.9476 18.7793C16.2821 19.1239 16.4494 19.5745 16.4494 20.1312C16.4494 20.6879 16.2821 21.1386 15.9476 21.4832C15.626 21.8278 15.1757 22.0001 14.5968 22.0001C14.0178 22.0001 13.5611 21.8278 13.2266 21.4832C12.905 21.1386 12.7442 20.6879 12.7442 20.1312Z" fill="#FECBA1"/>
</svg>